<?xml version='1.0' encoding='UTF-8'?>
<svg width="29mm" height="29mm" version="1.1" viewBox="0 0 29 29" xmlns="http://www.w3.org/2000/svg"><path d="M2,2H3V3H2zM3,2H4V3H3zM4,2H5V3H4zM5,2H6V3H5zM6,2H7V3H6zM7,2H8V3H7zM8,2H9V3H8zM11,2H12V3H11zM14,2H15V3H14zM15,2H16V3H15zM16,2H17V3H16zM20,2H21V3H20zM21,2H22V3H21zM22,2H23V3H22zM23,2H24V3H23zM24,2H25V3H24zM25,2H26V3H25zM26,2H27V3H26zM2,3H3V4H2zM8,3H9V4H8zM10,3H11V4H10zM11,3H12V4H11zM15,3H16V4H15zM20,3H21V4H20zM26,3H27V4H26zM2,4H3V5H2zM4,4H5V5H4zM5,4H6V5H5zM6,4H7V5H6zM8,4H9V5H8zM10,4H11V5H10zM11,4H12V5H11zM12,4H13V5H12zM14,4H15V5H14zM18,4H19V5H18zM20,4H21V5H20zM22,4H23V5H22zM23,4H24V5H23zM24,4H25V5H24zM26,4H27V5H26zM2,5H3V6H2zM4,5H5V6H4zM5,5H6V6H5zM6,5H7V6H6zM8,5H9V6H8zM10,5H11V6H10zM11,5H12V6H11zM13,5H14V6H13zM15,5H16V6H15zM16,5H17V6H16zM18,5H19V6H18zM20,5H21V6H20zM22,5H23V6H22zM23,5H24V6H23zM24,5H25V6H24zM26,5H27V6H26zM2,6H3V7H2zM4,6H5V7H4zM5,6H6V7H5zM6,6H7V7H6zM8,6H9V7H8zM11,6H12V7H11zM13,6H14V7H13zM15,6H16V7H15zM18,6H19V7H18zM20,6H21V7H20zM22,6H23V7H22zM23,6H24V7H23zM24,6H25V7H24zM26,6H27V7H26zM2,7H3V8H2zM8,7H9V8H8zM12,7H13V8H12zM14,7H15V8H14zM15,7H16V8H15zM16,7H17V8H16zM18,7H19V8H18zM20,7H21V8H20zM26,7H27V8H26zM2,8H3V9H2zM3,8H4V9H3zM4,8H5V9H4zM5,8H6V9H5zM6,8H7V9H6zM7,8H8V9H7zM8,8H9V9H8zM10,8H11V9H10zM12,8H13V9H12zM14,8H15V9H14zM16,8H17V9H16zM18,8H19V9H18zM20,8H21V9H20zM21,8H22V9H21zM22,8H23V9H22zM23,8H24V9H23zM24,8H25V9H24zM25,8H26V9H25zM26,8H27V9H26zM10,9H11V10H10zM11,9H12V10H11zM12,9H13V10H12zM13,9H14V10H13zM2,10H3V11H2zM8,10H9V11H8zM10,10H11V11H10zM11,10H12V11H11zM14,10H15V11H14zM15,10H16V11H15zM16,10H17V11H16zM19,10H20V11H19zM20,10H21V11H20zM23,10H24V11H23zM24,10H25V11H24zM25,10H26V11H25zM2,11H3V12H2zM5,11H6V12H5zM7,11H8V12H7zM9,11H10V12H9zM10,11H11V12H10zM12,11H13V12H12zM13,11H14V12H13zM16,11H17V12H16zM17,11H18V12H17zM19,11H20V12H19zM21,11H22V12H21zM22,11H23V12H22zM23,11H24V12H23zM24,11H25V12H24zM25,11H26V12H25zM3,12H4V13H3zM4,12H5V13H4zM7,12H8V13H7zM8,12H9V13H8zM9,12H10V13H9zM15,12H16V13H15zM17,12H18V13H17zM20,12H21V13H20zM21,12H22V13H21zM23,12H24V13H23zM25,12H26V13H25zM26,12H27V13H26zM2,13H3V14H2zM3,13H4V14H3zM5,13H6V14H5zM6,13H7V14H6zM7,13H8V14H7zM11,13H12V14H11zM12,13H13V14H12zM16,13H17V14H16zM17,13H18V14H17zM18,13H19V14H18zM20,13H21V14H20zM23,13H24V14H23zM26,13H27V14H26zM3,14H4V15H3zM4,14H5V15H4zM5,14H6V15H5zM6,14H7V15H6zM8,14H9V15H8zM9,14H10V15H9zM11,14H12V15H11zM13,14H14V15H13zM18,14H19V15H18zM20,14H21V15H20zM21,14H22V15H21zM26,14H27V15H26zM2,15H3V16H2zM9,15H10V16H9zM11,15H12V16H11zM12,15H13V16H12zM14,15H15V16H14zM15,15H16V16H15zM17,15H18V16H17zM18,15H19V16H18zM19,15H20V16H19zM21,15H22V16H21zM25,15H26V16H25zM2,16H3V17H2zM4,16H5V17H4zM7,16H8V17H7zM8,16H9V17H8zM15,16H16V17H15zM16,16H17V17H16zM17,16H18V17H17zM18,16H19V17H18zM20,16H21V17H20zM21,16H22V17H21zM22,16H23V17H22zM23,16H24V17H23zM25,16H26V17H25zM26,16H27V17H26zM2,17H3V18H2zM4,17H5V18H4zM5,17H6V18H5zM6,17H7V18H6zM7,17H8V18H7zM10,17H11V18H10zM12,17H13V18H12zM14,17H15V18H14zM20,17H21V18H20zM21,17H22V18H21zM23,17H24V18H23zM24,17H25V18H24zM26,17H27V18H26zM2,18H3V19H2zM5,18H6V19H5zM6,18H7V19H6zM8,18H9V19H8zM9,18H10V19H9zM10,18H11V19H10zM11,18H12V19H11zM14,18H15V19H14zM15,18H16V19H15zM16,18H17V19H16zM17,18H18V19H17zM18,18H19V19H18zM19,18H20V19H19zM20,18H21V19H20zM21,18H22V19H21zM22,18H23V19H22zM24,18H25V19H24zM10,19H11V20H10zM11,19H12V20H11zM12,19H13V20H12zM15,19H16V20H15zM18,19H19V20H18zM22,19H23V20H22zM2,20H3V21H2zM3,20H4V21H3zM4,20H5V21H4zM5,20H6V21H5zM6,20H7V21H6zM7,20H8V21H7zM8,20H9V21H8zM11,20H12V21H11zM14,20H15V21H14zM15,20H16V21H15zM18,20H19V21H18zM20,20H21V21H20zM22,20H23V21H22zM26,20H27V21H26zM2,21H3V22H2zM8,21H9V22H8zM11,21H12V22H11zM12,21H13V22H12zM13,21H14V22H13zM16,21H17V22H16zM17,21H18V22H17zM18,21H19V22H18zM22,21H23V22H22zM2,22H3V23H2zM4,22H5V23H4zM5,22H6V23H5zM6,22H7V23H6zM8,22H9V23H8zM11,22H12V23H11zM12,22H13V23H12zM13,22H14V23H13zM17,22H18V23H17zM18,22H19V23H18zM19,22H20V23H19zM20,22H21V23H20zM21,22H22V23H21zM22,22H23V23H22zM24,22H25V23H24zM25,22H26V23H25zM26,22H27V23H26zM2,23H3V24H2zM4,23H5V24H4zM5,23H6V24H5zM6,23H7V24H6zM8,23H9V24H8zM12,23H13V24H12zM14,23H15V24H14zM15,23H16V24H15zM16,23H17V24H16zM20,23H21V24H20zM25,23H26V24H25zM26,23H27V24H26zM2,24H3V25H2zM4,24H5V25H4zM5,24H6V25H5zM6,24H7V25H6zM8,24H9V25H8zM11,24H12V25H11zM15,24H16V25H15zM16,24H17V25H16zM17,24H18V25H17zM18,24H19V25H18zM23,24H24V25H23zM24,24H25V25H24zM26,24H27V25H26zM2,25H3V26H2zM8,25H9V26H8zM11,25H12V26H11zM14,25H15V26H14zM15,25H16V26H15zM17,25H18V26H17zM18,25H19V26H18zM19,25H20V26H19zM21,25H22V26H21zM22,25H23V26H22zM26,25H27V26H26zM2,26H3V27H2zM3,26H4V27H3zM4,26H5V27H4zM5,26H6V27H5zM6,26H7V27H6zM7,26H8V27H7zM8,26H9V27H8zM10,26H11V27H10zM12,26H13V27H12zM13,26H14V27H13zM14,26H15V27H14zM15,26H16V27H15zM18,26H19V27H18zM19,26H20V27H19zM23,26H24V27H23zM26,26H27V27H26z" id="qr-path" fill="#000000" fill-opacity="1" fill-rule="nonzero" stroke="none" /></svg>